{
	"asset":{
		"generator":"Khronos glTF Blender I/O v3.6.28",
		"version":"2.0"
	},
	"scene":0,
	"scenes":[
		{
			"name":"Scene",
			"nodes":[
				0,
				1,
				2,
				3,
				4
			]
		}
	],
	"nodes":[
		{
			"name":"Light.001",
			"rotation":[
				0.27418074011802673,
				0.6657811999320984,
				0.026061519980430603,
				0.6934559345245361
			],
			"scale":[
				1.0409955978393555,
				1.0409955978393555,
				1.040995717048645
			],
			"translation":[
				2.381211519241333,
				9.377270698547363,
				3.4080772399902344
			]
		},
		{
			"name":"Camera.001",
			"rotation":[
				0.483536034822464,
				0.33687159419059753,
				-0.20870360732078552,
				0.7804827094078064
			],
			"translation":[
				7.358891487121582,
				4.958309173583984,
				6.925790786743164
			]
		},
		{
			"mesh":0,
			"name":"main",
			"rotation":[
				0.70710688829422,
				0,
				0,
				0.7071066498756409
			],
			"translation":[
				3.6860475540161133,
				0,
				0
			]
		},
		{
			"mesh":1,
			"name":"Plane",
			"scale":[
				7.049901008605957,
				1,
				7.049901008605957
			],
			"translation":[
				-3.3989741802215576,
				0,
				-2.953871726989746
			]
		},
		{
			"mesh":2,
			"name":"Cube"
		}
	],
	"materials":[
		{
			"doubleSided":true,
			"name":"palette",
			"pbrMetallicRoughness":{
				"baseColorTexture":{
					"index":0
				},
				"metallicFactor":0
			}
		},
		{
			"alphaMode":"BLEND",
			"name":"Material.001",
			"pbrMetallicRoughness":{
				"baseColorTexture":{
					"index":1
				},
				"metallicFactor":0,
				"roughnessFactor":0.5
			}
		},
		{
			"doubleSided":true,
			"name":"Material",
			"pbrMetallicRoughness":{
				"baseColorFactor":[
					0.800000011920929,
					0.800000011920929,
					0.800000011920929,
					1
				],
				"metallicFactor":0,
				"roughnessFactor":0.5
			}
		}
	],
	"meshes":[
		{
			"name":"main",
			"primitives":[
				{
					"attributes":{
						"POSITION":0,
						"NORMAL":1,
						"TEXCOORD_0":2
					},
					"indices":3,
					"material":0
				}
			]
		},
		{
			"name":"Plane",
			"primitives":[
				{
					"attributes":{
						"POSITION":4,
						"NORMAL":5,
						"TEXCOORD_0":6
					},
					"indices":7,
					"material":1
				}
			]
		},
		{
			"name":"Cube",
			"primitives":[
				{
					"attributes":{
						"POSITION":8,
						"NORMAL":9,
						"TEXCOORD_0":10
					},
					"indices":11,
					"material":2
				}
			]
		}
	],
	"textures":[
		{
			"sampler":0,
			"source":0
		},
		{
			"sampler":0,
			"source":1
		}
	],
	"images":[
		{
			"bufferView":4,
			"mimeType":"image/png",
			"name":"dog-bake"
		},
		{
			"bufferView":9,
			"mimeType":"image/png",
			"name":"plane-tex"
		}
	],
	"accessors":[
		{
			"bufferView":0,
			"componentType":5126,
			"count":1543,
			"max":[
				-0.800000011920929,
				2.700000047683716,
				0
			],
			"min":[
				-6.400000095367432,
				-2.299999952316284,
				-4.400000095367432
			],
			"type":"VEC3"
		},
		{
			"bufferView":1,
			"componentType":5126,
			"count":1543,
			"type":"VEC3"
		},
		{
			"bufferView":2,
			"componentType":5126,
			"count":1543,
			"type":"VEC2"
		},
		{
			"bufferView":3,
			"componentType":5123,
			"count":3876,
			"type":"SCALAR"
		},
		{
			"bufferView":5,
			"componentType":5126,
			"count":4,
			"max":[
				1,
				0,
				1
			],
			"min":[
				-1,
				0,
				-1
			],
			"type":"VEC3"
		},
		{
			"bufferView":6,
			"componentType":5126,
			"count":4,
			"type":"VEC3"
		},
		{
			"bufferView":7,
			"componentType":5126,
			"count":4,
			"type":"VEC2"
		},
		{
			"bufferView":8,
			"componentType":5123,
			"count":6,
			"type":"SCALAR"
		},
		{
			"bufferView":10,
			"componentType":5126,
			"count":24,
			"max":[
				1,
				1,
				1
			],
			"min":[
				-1,
				-1,
				-1
			],
			"type":"VEC3"
		},
		{
			"bufferView":11,
			"componentType":5126,
			"count":24,
			"type":"VEC3"
		},
		{
			"bufferView":12,
			"componentType":5126,
			"count":24,
			"type":"VEC2"
		},
		{
			"bufferView":13,
			"componentType":5123,
			"count":36,
			"type":"SCALAR"
		}
	],
	"bufferViews":[
		{
			"buffer":0,
			"byteLength":18516,
			"byteOffset":0,
			"target":34962
		},
		{
			"buffer":0,
			"byteLength":18516,
			"byteOffset":18516,
			"target":34962
		},
		{
			"buffer":0,
			"byteLength":12344,
			"byteOffset":37032,
			"target":34962
		},
		{
			"buffer":0,
			"byteLength":7752,
			"byteOffset":49376,
			"target":34963
		},
		{
			"buffer":0,
			"byteLength":1256314,
			"byteOffset":57128
		},
		{
			"buffer":0,
			"byteLength":48,
			"byteOffset":1313444,
			"target":34962
		},
		{
			"buffer":0,
			"byteLength":48,
			"byteOffset":1313492,
			"target":34962
		},
		{
			"buffer":0,
			"byteLength":32,
			"byteOffset":1313540,
			"target":34962
		},
		{
			"buffer":0,
			"byteLength":12,
			"byteOffset":1313572,
			"target":34963
		},
		{
			"buffer":0,
			"byteLength":152225,
			"byteOffset":1313584
		},
		{
			"buffer":0,
			"byteLength":288,
			"byteOffset":1465812,
			"target":34962
		},
		{
			"buffer":0,
			"byteLength":288,
			"byteOffset":1466100,
			"target":34962
		},
		{
			"buffer":0,
			"byteLength":192,
			"byteOffset":1466388,
			"target":34962
		},
		{
			"buffer":0,
			"byteLength":72,
			"byteOffset":1466580,
			"target":34963
		}
	],
	"samplers":[
		{
			"magFilter":9729,
			"minFilter":9987
		}
	],
	"buffers":[
		{
			"byteLength":1466652,
			"uri":"data:application/octet-stream;base64,"
		}
	]
}
